<svg width="512" height="512" viewBox="0 0 512 512" fill="none" xmlns="http://www.w3.org/2000/svg">
  <defs>
    <linearGradient id="scropidsGlow" x1="88" y1="88" x2="424" y2="424" gradientUnits="userSpaceOnUse">
      <stop stop-color="#7DF7E8" />
      <stop offset="1" stop-color="#44B7FF" />
    </linearGradient>
    <radialGradient id="scropidsBg" cx="0" cy="0" r="1" gradientUnits="userSpaceOnUse" gradientTransform="translate(256 256) rotate(90) scale(232)">
      <stop stop-color="#10192B" />
      <stop offset="1" stop-color="#060C18" />
    </radialGradient>
  </defs>

  <rect width="512" height="512" rx="88" fill="url(#scropidsBg)" />

  <g stroke="url(#scropidsGlow)" stroke-width="14" stroke-linecap="round" stroke-linejoin="round">
    <circle cx="256" cy="256" r="176" opacity="0.95" />

    <path d="M146 210L108 178" />
    <path d="M146 302L108 334" />
    <path d="M366 210L404 178" />
    <path d="M366 302L404 334" />

    <path d="M168 220H130" />
    <path d="M168 292H130" />
    <path d="M382 220H344" />
    <path d="M382 292H344" />

    <circle cx="108" cy="178" r="8" />
    <circle cx="108" cy="334" r="8" />
    <circle cx="404" cy="178" r="8" />
    <circle cx="404" cy="334" r="8" />
    <circle cx="130" cy="220" r="8" />
    <circle cx="130" cy="292" r="8" />
    <circle cx="382" cy="220" r="8" />
    <circle cx="382" cy="292" r="8" />
  </g>

  <g fill="url(#scropidsGlow)">
    <ellipse cx="256" cy="136" rx="24" ry="14" />
    <ellipse cx="224" cy="152" rx="20" ry="12" transform="rotate(-24 224 152)" />
    <ellipse cx="288" cy="152" rx="20" ry="12" transform="rotate(24 288 152)" />

    <rect x="226" y="170" width="60" height="164" rx="30" />
    <rect x="220" y="196" width="72" height="12" rx="6" />
    <rect x="220" y="228" width="72" height="12" rx="6" />
    <rect x="220" y="260" width="72" height="12" rx="6" />
    <rect x="220" y="292" width="72" height="12" rx="6" />

    <path d="M206 208L162 208L140 230L162 252L206 252V238H170L160 230L170 222H206V208Z" />
    <path d="M306 208L350 208L372 230L350 252L306 252V238H342L352 230L342 222H306V208Z" />
    <path d="M206 260L154 260L126 286L154 312L206 312V298H162L146 286L162 274H206V260Z" />
    <path d="M306 260L358 260L386 286L358 312L306 312V298H350L366 286L350 274H306V260Z" />

    <path d="M248 350L236 370L248 390H264L276 370L264 350H248Z" />
    <circle cx="256" cy="402" r="8" />

    <path d="M196 348C182 360 174 376 174 392C192 392 210 384 222 372L196 348Z" />
    <path d="M316 348C330 360 338 376 338 392C320 392 302 384 290 372L316 348Z" />
  </g>
</svg>
